<svg width="70" height="70" viewBox="0 0 70 70" fill="none" xmlns="http://www.w3.org/2000/svg">
<path d="M34 65L34.0696 64.0024L34.0348 64H34V65ZM64 35L63.2567 35.669C63.4894 35.9275 63.8397 36.0466 64.1818 35.9833C64.5239 35.9201 64.8085 35.6836 64.9333 35.359L64 35ZM60.2433 29.331C59.8738 28.9205 59.2415 28.8872 58.831 29.2567C58.4205 29.6262 58.3872 30.2585 58.7567 30.669L60.2433 29.331ZM67.4333 28.859C67.6316 28.3435 67.3745 27.7649 66.859 27.5667C66.3435 27.3684 65.7649 27.6255 65.5667 28.141L67.4333 28.859ZM62.4536 47.8011C62.6199 47.2745 62.3278 46.7127 61.8011 46.5464C61.2745 46.3801 60.7127 46.6722 60.5464 47.1989L62.4536 47.8011ZM34 64C17.9837 64 5 51.0163 5 35H3C3 52.1208 16.8792 66 34 66V64ZM5 35C5 18.9837 17.9837 6 34 6V4C16.8792 4 3 17.8792 3 35H5ZM34 6C50.0163 6 63 18.9837 63 35H65C65 17.8792 51.1208 4 34 4V6ZM64.7433 34.331L60.2433 29.331L58.7567 30.669L63.2567 35.669L64.7433 34.331ZM64.9333 35.359L67.4333 28.859L65.5667 28.141L63.0667 34.641L64.9333 35.359ZM33.9304 65.9976C37.6589 66.2577 43.5087 65.6626 49.0641 63.0419C54.647 60.4083 59.9548 55.7139 62.4536 47.8011L60.5464 47.1989C58.2452 54.4861 53.3863 58.7917 48.2109 61.2331C43.008 63.6874 37.5077 64.2423 34.0696 64.0024L33.9304 65.9976Z" fill="white"/>
<path d="M19.3672 29.1816C19.3672 27.1491 19.8958 25.6361 20.9531 24.6426C22.0195 23.64 23.4915 23.1387 25.3691 23.1387C27.2194 23.1387 28.6549 23.599 29.6758 24.5195C30.7057 25.4401 31.2207 26.8346 31.2207 28.7031C31.2207 29.5326 31.1159 30.2708 30.9062 30.918C30.6966 31.556 30.4141 32.0801 30.0586 32.4902C29.7122 32.9004 29.3112 33.265 28.8555 33.584C28.3997 33.903 27.9212 34.181 27.4199 34.418C26.9186 34.6549 26.4173 34.8919 25.916 35.1289C25.4147 35.3659 24.9362 35.6393 24.4805 35.9492C24.0247 36.2591 23.6191 36.6146 23.2637 37.0156C22.9173 37.4167 22.6393 37.9316 22.4297 38.5605C22.2201 39.1895 22.1152 39.9095 22.1152 40.7207V42.3613H31.043V45H19.3945V40.748C19.3945 39.7728 19.4993 38.8932 19.709 38.1094C19.9186 37.3164 20.1966 36.6602 20.543 36.1406C20.8984 35.612 21.304 35.138 21.7598 34.7188C22.2155 34.2995 22.694 33.9486 23.1953 33.666C23.7057 33.3835 24.2116 33.1191 24.7129 32.873C25.2233 32.6178 25.7064 32.3626 26.1621 32.1074C26.6178 31.8522 27.0189 31.5788 27.3652 31.2871C27.7207 30.9954 28.0033 30.6354 28.2129 30.207C28.4225 29.7695 28.5273 29.2773 28.5273 28.7305C28.5273 27.6549 28.263 26.862 27.7344 26.3516C27.2057 25.832 26.3763 25.5723 25.2461 25.5723C23.1042 25.5723 22.0332 26.7754 22.0332 29.1816H19.3672ZM32.3281 38.1641L41.6797 23.3574H44.168V37.8906H46.0684V40.3242H44.168V45H41.5156V40.3242H32.7246L32.3281 38.1641ZM35.4316 37.8906H41.5156V28.0605L35.4316 37.8906Z" fill="white"/>
</svg>
