<svg width="70" height="70" viewBox="0 0 70 70" fill="none" xmlns="http://www.w3.org/2000/svg">
    <path d="M4 4H35H66V35V66H35H4V35V4Z" stroke="white" stroke-width="2"/>
    <path d="M4.5 19.9996L6.91987 18.3863C7.29815 18.1341 7.7426 17.9996 8.19722 17.9996H8.91413C9.78998 17.9996 10.6242 18.9996 11.5 18.9996V18.9996C13.5 18.9996 13.5 17.9996 14.5 17.9996C15.5 17.9996 16 17.4996 17.5 17.4996C19 17.4996 19.5 17.4996 20 16.9996C20.5 16.4996 20.5 15.9996 21.5 15.9996C22.5 15.9996 22 15.4996 23.5 15.9996C25 16.4996 26 17.4996 26.5 17.4996C27 17.4996 27.5 17.9996 28 17.9996C28.1475 17.9996 28.2995 17.9996 28.441 17.9996C28.8086 17.9996 29.1712 17.914 29.5 17.7496V17.7496C29.8288 17.5852 30.1913 17.4996 30.559 17.4996C30.6803 17.4996 30.826 17.4996 31 17.4996C32 17.4996 32.5 16.9996 33 16.9996C33.4 16.9996 33.8333 16.9996 34 16.9996H35" stroke="white" stroke-width="2"/>
    <circle cx="7.5" cy="22.5" r="0.5" fill="white"/>
    <circle cx="14" cy="23" r="1" fill="white"/>
    <circle cx="11" cy="27" r="1" fill="white"/>
    <circle cx="16.5" cy="28.5" r="1.5" fill="white"/>
    <circle cx="21.5" cy="25.5" r="1.5" fill="white"/>
    <circle cx="27" cy="24" r="1" fill="white"/>
    <circle cx="31" cy="26" r="1" fill="white"/>
    <circle cx="22" cy="30" r="1" fill="white"/>
    <circle cx="11.5" cy="31.5" r="0.5" fill="white"/>
    <circle cx="28.5" cy="30.5" r="1.5" fill="white"/>
    <circle cx="22.5" cy="20.5" r="0.5" fill="white"/>
    <path d="M66.0513 4L35.9993 34.052M45.2513 4L35 14.2513M35 24.2513L55.2513 4M46 35.0513L66.0513 15M66.0513 26L57 35.0513" stroke="white" stroke-width="2"/>
    <mask id="mask0" mask-type="alpha" maskUnits="userSpaceOnUse" x="4" y="43" width="31" height="12">
        <rect x="4" y="43" width="31" height="12" fill="#C4C4C4"/>
    </mask>
    <g mask="url(#mask0)">
        <rect x="7.30288" y="46.0015" width="7" height="10" transform="rotate(27.8178 7.30288 46.0015)" stroke="white" stroke-width="2"/>
        <rect x="17.2384" y="50.1828" width="7" height="10" transform="rotate(-16.1292 17.2384 50.1828)" stroke="white" stroke-width="2"/>
        <rect x="11.5801" y="53.9531" width="6.15547" height="10" transform="rotate(1.01748 11.5801 53.9531)" stroke="white" stroke-width="2"/>
    </g>
    <path d="M17 49.5L19.4581 58" stroke="white" stroke-width="2"/>
    <rect x="26.7744" y="47.0599" width="7.3929" height="11.2607" transform="rotate(6.1195 26.7744 47.0599)" stroke="white" stroke-width="2"/>
    <path d="M11 54L8.2437 59.4637" stroke="white" stroke-width="2"/>
    <path d="M60.11 44.1951C60.3046 43.4964 60.7457 42.8918 61.3517 42.4934C61.9578 42.0949 62.6876 41.9294 63.4062 42.0276C64.1248 42.1258 64.7835 42.481 65.2604 43.0275C65.7372 43.574 66 44.2747 66 45" stroke="white" stroke-width="2"/>
    <path d="M56.0198 49.3976C55.9442 48.6403 56.0861 47.877 56.4291 47.1976C56.7721 46.5181 57.3018 45.9506 57.9561 45.5616C58.6103 45.1727 59.362 44.9785 60.1227 45.0019C60.8835 45.0252 61.6218 45.2652 62.251 45.6935" stroke="white" stroke-width="2"/>
    <path d="M52.1473 52.9284C52.007 52.4973 51.9662 52.0401 52.028 51.591C52.0898 51.1419 52.2526 50.7127 52.5041 50.3356C52.7556 49.9584 53.0893 49.6432 53.4801 49.4135C53.8709 49.1839 54.3087 49.0458 54.7605 49.0096C55.2124 48.9734 55.6666 49.0401 56.089 49.2046C56.5113 49.3692 56.891 49.6273 57.1993 49.9596C57.5076 50.2919 57.7366 50.6898 57.869 51.1233C58.0015 51.5568 58.034 52.0147 57.9641 52.4626" stroke="white" stroke-width="2"/>
    <path d="M54.1087 57.9248C53.6847 58.0312 53.2402 58.0246 52.8195 57.9056C52.3989 57.7866 52.0168 57.5594 51.7114 57.2466C51.4059 56.9339 51.1879 56.5465 51.0789 56.1231C50.9699 55.6997 50.9739 55.2552 51.0904 54.8338C51.2069 54.4125 51.4318 54.029 51.7428 53.7218C52.0537 53.4145 52.4398 53.1941 52.8625 53.0826C53.2852 52.9712 53.7298 52.9725 54.1518 53.0865C54.5739 53.2005 54.9586 53.4231 55.2678 53.7322" stroke="white" stroke-width="2"/>
    <path d="M45.8787 59.1213C45.4591 58.7018 45.1734 58.1672 45.0576 57.5853C44.9419 57.0033 45.0013 56.4001 45.2284 55.8519C45.4554 55.3038 45.8399 54.8352 46.3333 54.5056C46.8266 54.1759 47.4067 54 48 54C48.5933 54 49.1734 54.1759 49.6667 54.5056C50.1601 54.8352 50.5446 55.3038 50.7716 55.8519C50.9987 56.4001 51.0581 57.0033 50.9424 57.5853C50.8266 58.1672 50.5409 58.7018 50.1213 59.1213" stroke="white" stroke-width="2"/>
    <path d="M43.0163 61.215C43.0605 60.8302 43.1935 60.4608 43.4048 60.1361C43.6161 59.8115 43.9 59.5404 44.2341 59.3442C44.5682 59.148 44.9433 59.0322 45.3298 59.0058C45.7163 58.9794 46.1036 59.0432 46.4612 59.1922" stroke="white" stroke-width="2"/>
    <path d="M41.0271 65.9549C40.5749 65.8677 40.1554 65.6574 39.8152 65.347C39.4749 65.0366 39.227 64.6382 39.0988 64.1958C38.9706 63.7535 38.9671 63.2843 39.0887 62.84C39.2103 62.3958 39.4522 61.9938 39.7878 61.6783C40.1234 61.3629 40.5397 61.1463 40.9906 61.0525C41.4415 60.9586 41.9096 60.9911 42.3432 61.1465C42.7768 61.3018 43.159 61.5739 43.4478 61.9328C43.7365 62.2916 43.9205 62.7232 43.9794 63.18" stroke="white" stroke-width="2"/>
</svg>
