<svg width="70" height="70" viewBox="0 0 70 70" fill="none" xmlns="http://www.w3.org/2000/svg">
    <g>
        <path d="M35 10.5V1H26H44" stroke="white" stroke-width="2" stroke-linecap="round" stroke-linejoin="round"/>
        <path d="M43.2742 11.9958L42.9488 12.9413L42.9817 12.9527L43.0154 12.9617L43.2742 11.9958ZM8.50667 32.0688L9.39777 31.615C9.23992 31.305 8.93233 31.0994 8.58556 31.0719C8.2388 31.0445 7.90268 31.1992 7.69803 31.4805L8.50667 32.0688ZM10.5041 38.1947C10.7547 38.6869 11.3568 38.8827 11.849 38.6321C12.3411 38.3814 12.5369 37.7793 12.2863 37.2872L10.5041 38.1947ZM3.82111 36.8093C3.49619 37.2559 3.59483 37.8813 4.04142 38.2062C4.48802 38.5312 5.11345 38.4325 5.43837 37.9859L3.82111 36.8093ZM13.0099 20.7183C12.7129 21.1839 12.8497 21.8022 13.3154 22.0991C13.781 22.3961 14.3992 22.2593 14.6962 21.7936L13.0099 20.7183ZM43.0154 12.9617C57.6257 16.8765 66.2961 31.8941 62.3813 46.5045L64.3132 47.0221C68.5139 31.3448 59.2103 15.2306 43.533 11.0298L43.0154 12.9617ZM62.3813 46.5045C58.4665 61.1148 43.4489 69.7853 28.8385 65.8704L28.3209 67.8023C43.9982 72.003 60.1125 62.6994 64.3132 47.0221L62.3813 46.5045ZM28.8385 65.8704C14.2282 61.9556 5.55776 46.938 9.47259 32.3276L7.54074 31.81C3.34003 47.4873 12.6436 63.6016 28.3209 67.8023L28.8385 65.8704ZM7.61556 32.5226L10.5041 38.1947L12.2863 37.2872L9.39777 31.615L7.61556 32.5226ZM7.69803 31.4805L3.82111 36.8093L5.43837 37.9859L9.3153 32.6571L7.69803 31.4805ZM43.5996 11.0502C40.248 9.89675 34.7462 9.00665 29.0163 10.0433C23.2566 11.0852 17.2412 14.0831 13.0099 20.7183L14.6962 21.7936C18.5748 15.7115 24.0559 12.9731 29.3724 12.0113C34.7186 11.0441 39.8724 11.8826 42.9488 12.9413L43.5996 11.0502Z"
              fill="white"/>
        <mask id="path-3-inside-1" fill="white">
            <rect x="58.6621" y="5.34766" width="15" height="6.88704" rx="1"
                  transform="rotate(42.5987 58.6621 5.34766)"/>
        </mask>
        <rect x="58.6621" y="5.34766" width="15" height="6.88704" rx="1" transform="rotate(42.5987 58.6621 5.34766)"
              stroke="white" stroke-width="2"/>
        <path d="M57 40.5V41.5C57.5523 41.5 58 41.0523 58 40.5H57ZM35.5 19V18C34.9477 18 34.5 18.4477 34.5 19H35.5ZM35.5 40.5H34.5C34.5 41.0523 34.9477 41.5 35.5 41.5V40.5ZM35.5 20C46.8218 20 56 29.1782 56 40.5H58C58 28.0736 47.9264 18 35.5 18V20ZM34.5 19V40.5H36.5V19H34.5ZM35.5 41.5H57V39.5H35.5V41.5Z"
              fill="white"/>
    </g>
</svg>
