<svg width="526" height="353" viewBox="0 0 526 353" fill="none" xmlns="http://www.w3.org/2000/svg">
<path opacity="0.2" d="M100.275 179.228C92.1149 176.01 85.2242 165.666 106.113 159.996C132.225 152.909 195.426 132.143 172.352 126.663C126.205 118.018 134.499 117.308 142.999 114.808C149.799 112.808 164.501 109.308 171.002 107.808C154.502 110.642 122.902 116.808 128.502 118.808C134.102 120.808 153.68 125.273 162.769 127.255C169.925 128.65 177.006 131.628 168.443 134.141C159.881 136.654 133.458 147.984 109.188 153.708C84.9188 159.432 77.5016 167.41 86.7093 177.982C94.1547 186.531 100.681 181.602 100.275 179.228Z" fill="#C4C4C4"/>
<path d="M260.716 158.912C221.478 164.694 54.3679 190.996 12.5483 198.052C-1.39099 200.404 -3.97241 191.46 11 190.308C17.7118 189.792 124.415 173.884 182.24 164.591C240.065 155.298 272.075 150.135 292.726 146.005C313.378 141.874 326.914 148.694 357.263 142.907C461.999 122.935 488.846 116.74 503.302 113.642C517.759 110.544 513.112 109.512 491.428 103.832C469.744 98.1533 468.195 100.218 467.162 96.6044C466.128 92.9904 494.009 88.86 504.335 88.86C514.661 88.86 518.274 88.3437 518.274 89.8925C518.274 91.1316 515.521 91.4413 514.145 91.4413C511.047 91.2692 501.134 91.7511 486.265 95.0554C467.678 99.1857 494.009 99.1857 518.274 104.865C542.54 110.544 503.302 120.354 467.162 128.098C431.021 135.842 348.485 158.912 325.252 155.814C302.019 152.716 309.763 151.684 260.716 158.912Z" fill="white"/>
<path opacity="0.2" d="M438.634 112.285C453.034 113.979 477.98 118.456 493.417 120.849C498.563 121.647 498.573 115.623 493.184 115.67C490.769 115.692 451.592 110.965 430.294 107.961C408.995 104.956 433.752 107.121 426.063 105.514C418.375 103.907 414.501 106.77 403.024 106.948C392.896 107.104 382.818 104.472 377.416 103.212C372.013 101.951 373.546 101.022 380.612 96.1179C387.677 91.2143 388.43 92.4899 388.431 90.0562C388.431 87.6226 378.197 86.4046 374.561 86.9601C370.925 87.5157 369.6 87.3703 369.756 88.3895C369.88 89.2049 370.881 89.2605 371.366 89.1865C372.44 88.9066 375.979 88.6904 381.548 90.0647C388.508 91.7826 379.236 93.1991 371.261 98.2416C363.286 103.284 378.091 107.628 391.597 110.78C405.103 113.931 407.724 117.007 415.595 113.719C423.466 110.431 420.634 110.168 438.634 112.285Z" fill="white"/>
<path d="M373.545 140.759C384.904 136.211 392.547 124.853 359.918 122.788C319.131 120.207 219.486 110.397 252.529 101.104C285.572 91.8105 259.757 94.9083 269.05 91.8105C278.344 88.7128 285.572 87.6802 248.399 86.6476C211.226 85.615 227.747 86.6476 199.867 91.8105C177.564 95.9408 151.336 96.285 141.01 95.9408C155.466 95.0803 188.199 92.5332 203.481 89.229C222.584 85.0986 214.324 83.5498 242.72 83.0335C271.116 82.5172 304.158 84.0662 292.283 86.6476L291.962 86.7175C280.279 89.257 273.218 90.7918 277.311 92.3266C281.441 93.8755 277.311 97.4895 266.985 100.071C256.659 102.652 246.85 106.783 260.273 107.815C273.697 108.848 316.033 115.56 353.722 117.109C391.411 118.657 404.521 125.27 393.476 137.244C384.546 146.926 373.545 143.168 373.545 140.759Z" fill="white"/>
<g filter="url(#filter0_f)">
<path d="M228.469 302.874C228.985 283.772 327.596 258.473 351.087 226.98C373.39 197.079 341.794 172.769 305.137 164.508C268.481 156.248 229.243 150.052 258.672 137.661C288.1 125.27 303.073 107.716 326.822 102.037C350.571 96.358 374.321 94.8092 391.875 91.7114C409.429 88.6137 409.429 83.4508 391.875 75.7064C374.321 67.962 338.697 53.5059 330.436 50.9245C322.175 48.343 322.174 52.4733 337.147 59.1851C352.12 65.8969 371.223 75.7064 377.418 78.2878C383.614 80.8693 396.005 84.4833 374.321 85.5159C352.637 86.5485 322.175 86.5484 305.654 94.2928C289.133 102.037 270.546 109.782 246.797 123.721C223.048 137.661 192.586 150.052 233.89 166.057C275.193 182.062 327.596 178.965 318.045 206.328C306.294 239.994 84.9398 281.19 84.9398 302.874H228.469Z" fill="#F3BA00"/>
</g>
<path d="M228.469 302.875C228.985 283.772 327.596 258.474 351.087 226.98C373.39 197.08 341.794 172.77 305.137 164.509C268.481 156.248 229.243 150.053 258.672 137.662C288.1 125.271 303.073 107.717 326.822 102.038C350.571 96.3585 374.321 94.8097 391.875 91.7119C409.429 88.6142 409.429 83.4513 391.875 75.7069C374.321 67.9625 343.971 58.5875 335.501 56.8085C332.566 56.192 330.436 56.8085 337.147 59.1856C352.614 64.6639 366.501 69.8621 377.418 75.2883C384.501 78.8085 396.005 84.4838 374.321 85.5164C352.637 86.549 322.175 86.5489 305.654 94.2933C289.133 102.038 270.546 109.782 246.797 123.722C223.048 137.662 192.586 150.053 233.89 166.058C275.193 182.063 327.596 178.965 318.045 206.328C306.294 239.994 84.9398 281.191 84.9398 302.875H228.469Z" fill="#F3BA00"/>
<g filter="url(#filter1_f)">
<path d="M330.694 188.258L282.163 241.952H379.226L330.694 188.258Z" fill="black"/>
<path d="M379.226 241.952H282.163L283.68 255.376H377.709L379.226 241.952Z" fill="black"/>
</g>
<path d="M329.661 153.15L281.13 206.845H378.192L329.661 153.15Z" fill="white"/>
<path d="M378.192 206.845H281.13L282.646 220.268H376.676L378.192 206.845Z" fill="#D5D5D5"/>
<defs>
<filter id="filter0_f" x="34.9395" y="0.147461" width="420.1" height="352.727" filterUnits="userSpaceOnUse" color-interpolation-filters="sRGB">
<feFlood flood-opacity="0" result="BackgroundImageFix"/>
<feBlend mode="normal" in="SourceGraphic" in2="BackgroundImageFix" result="shape"/>
<feGaussianBlur stdDeviation="25" result="effect1_foregroundBlur"/>
</filter>
<filter id="filter1_f" x="232.163" y="138.258" width="197.063" height="167.118" filterUnits="userSpaceOnUse" color-interpolation-filters="sRGB">
<feFlood flood-opacity="0" result="BackgroundImageFix"/>
<feBlend mode="normal" in="SourceGraphic" in2="BackgroundImageFix" result="shape"/>
<feGaussianBlur stdDeviation="25" result="effect1_foregroundBlur"/>
</filter>
</defs>
</svg>
