<svg width="106" height="37" viewBox="0 0 106 37" fill="none" xmlns="http://www.w3.org/2000/svg">
<path fill-rule="evenodd" clip-rule="evenodd" d="M99.6728 29.2606C100.758 29.2606 102.234 29.2606 103.709 29.2606L106 35.934C102.512 35.934 104.973 35.934 99.6731 35.934C93.6733 35.934 88.8094 31.2264 88.8094 25.4192C88.8094 19.6123 88.8094 10.5647 88.8094 10.5647L95.6973 6.74104C95.6973 6.74104 95.7168 12.3078 95.7331 17.4057H99.6391L102.073 24.4955L95.7541 24.5273C95.7551 24.951 95.7554 25.2734 95.7554 25.4688C95.7554 27.5629 97.5094 29.2606 99.6728 29.2606ZM78.5212 36.0283C73.8884 36.3256 66.9584 35.7145 66.9584 35.7145L67.9785 29.064C67.9785 29.064 77.2701 29.454 78.1215 29.3994C78.7155 29.3613 79.662 29.2813 79.624 28.6562C79.5928 28.14 79.2981 28.0905 77.4996 27.5864C74.6403 26.7583 74.0685 27.0674 71.0528 25.9433C68.2231 24.8881 66.7827 22.5825 66.6106 19.7457C66.3384 15.2614 68.4199 12.1998 74.5507 11.8069C79.1838 11.5096 85.4928 12.1112 85.4928 12.1112L84.1966 18.7579C84.1966 18.7579 75.9411 18.3691 75.0894 18.4237C74.2381 18.4784 73.4287 18.5464 73.4676 19.1848C73.5217 20.0757 74.7126 20.3425 75.6646 20.5576C78.6655 21.4333 79.0939 21.2478 81.2746 21.9513C84.7338 23.0672 86.2608 24.7808 86.4758 28.329C86.748 32.8133 84.4156 35.6507 78.5212 36.0283ZM53.2416 35.934C47.2418 35.934 42.3782 31.2264 42.3782 25.4192C42.3782 19.6123 42.3782 15.2157 42.3782 15.2157L49.2658 11.3921C49.2658 11.3921 49.3242 23.3749 49.3242 25.4688C49.3242 27.5629 51.0779 29.2606 53.2416 29.2606C55.4049 29.2606 57.159 27.5629 57.159 25.4688C57.159 23.3749 57.2176 15.2157 57.2176 15.2157L64.1053 11.3921C64.1053 11.3921 64.1053 19.6123 64.1053 25.4192C64.1053 31.2264 59.2414 35.934 53.2416 35.934ZM29.8429 35.8956L27.565 29.2606C28.0633 29.2606 28.5381 29.2606 28.9462 29.2606C31.1098 29.2606 32.8635 27.5629 32.8635 25.4688C32.8635 23.3749 32.9222 15.2157 32.9222 15.2157L39.8102 11.3921C39.8102 11.3921 39.8102 19.6123 39.8102 25.4192C39.8102 30.9339 35.4229 35.4537 29.8429 35.8956ZM10.0355 25.4192C10.0355 19.6123 10.0355 10.5647 10.0355 10.5647L16.9234 6.74104C16.9234 6.74104 16.9429 12.3078 16.9592 17.4057H20.8652L23.2992 24.4955L16.9799 24.5273C16.9809 24.951 16.9815 25.2734 16.9815 25.4688C16.9815 27.5629 18.7355 29.2606 20.8989 29.2606C21.9838 29.2606 23.4601 29.2606 24.9352 29.2606L27.2261 35.934C23.7378 35.934 26.1993 35.934 20.8992 35.934C14.8994 35.934 10.0355 31.2264 10.0355 25.4192ZM0 15.2938L6.87032 11.4705V35.8254H0V15.2938ZM0 7.64692L6.87032 0V7.78635L0 12.3745V7.64692Z" fill="#D2D2D2"/>
</svg>
