<svg width="915" height="137" viewBox="0 0 915 137" fill="none" xmlns="http://www.w3.org/2000/svg">
<path fill-rule="evenodd" clip-rule="evenodd" d="M661.365 136.269L686.868 0.553226L915 0.534591V136.269H661.365ZM719.219 21.2166L719.455 115.7L737.975 115.71L738.103 21.0701L719.219 21.2166ZM756.503 21.2166V39.6676H784.501L784.66 115.7L803.18 115.71L803.309 21.0701C800.422 21.0701 756.503 21.2166 756.503 21.2166ZM821.707 21.2166V39.6676H849.705L849.866 115.7L868.386 115.71L868.513 21.0701L821.707 21.2166Z" fill="url(#paint0_linear)"/>
<path fill-rule="evenodd" clip-rule="evenodd" d="M502.81 0.534591V136.173H486.665V0.653503L502.81 0.534591Z" fill="url(#paint1_linear)"/>
<path fill-rule="evenodd" clip-rule="evenodd" d="M518.339 74.0831H494.744V58.1026H518.318L518.339 74.0831Z" fill="url(#paint2_linear)"/>
<path fill-rule="evenodd" clip-rule="evenodd" d="M542.904 136.173H524.564L512.39 67.9777H512.266L512.327 67.6245L512.266 67.2775H512.388L524.095 0.473321H542.435L529.663 67.6254L542.904 136.173Z" fill="url(#paint3_linear)"/>
<path fill-rule="evenodd" clip-rule="evenodd" d="M423.633 0.534546V136.433H407.488V0.518572L423.633 0.534546Z" fill="url(#paint4_linear)"/>
<path fill-rule="evenodd" clip-rule="evenodd" d="M410.96 58.1399H437.786C441.645 58.1399 444.772 55.0437 444.772 51.2252V23.4546C444.772 19.6361 441.645 16.5399 437.786 16.5399H410.96L408.803 0.460938H439.943C451.518 0.460938 460.902 9.74857 460.902 21.205V53.4739C460.902 64.9304 451.518 74.218 439.943 74.218H408.803L410.96 58.1399Z" fill="url(#paint5_linear)"/>
<path fill-rule="evenodd" clip-rule="evenodd" d="M410.96 120.372H437.786C441.645 120.372 444.772 117.276 444.772 113.457V81.0777C444.772 77.2583 441.645 74.163 437.786 74.163H410.96L408.803 58.084H439.943C451.518 58.084 460.902 67.3716 460.902 78.8281V115.707C460.902 127.164 451.518 136.451 439.943 136.451H408.803L410.96 120.372Z" fill="url(#paint6_linear)"/>
<path fill-rule="evenodd" clip-rule="evenodd" d="M352.396 50.6244L337.38 136.172H319.04L344.542 0.553145H360.617L386.118 136.172H367.779L352.396 50.6244Z" fill="url(#paint7_linear)"/>
<path fill-rule="evenodd" clip-rule="evenodd" d="M378.655 120.512H331.229L328.538 136.273H378.753L378.655 120.512Z" fill="url(#paint8_linear)"/>
<path fill-rule="evenodd" clip-rule="evenodd" d="M596.898 50.6244L581.882 136.172H563.542L589.044 0.553145H605.119L630.62 136.172H612.281L596.898 50.6244Z" fill="url(#paint9_linear)"/>
<path fill-rule="evenodd" clip-rule="evenodd" d="M623.157 120.512H575.731L573.04 136.273H623.255L623.157 120.512Z" fill="url(#paint10_linear)"/>
<path fill-rule="evenodd" clip-rule="evenodd" d="M309.5 0.504402L307.534 16.5754L286.237 16.5843V136.461H270.091V16.5914L246.399 16.6242L248.364 0.55321L309.5 0.504402Z" fill="url(#paint11_linear)"/>
<path fill-rule="evenodd" clip-rule="evenodd" d="M211.897 41.9491V23.4546C211.897 19.6361 208.769 16.5399 204.911 16.5399H197.581C193.722 16.5399 190.594 19.6361 190.594 23.4546V113.458C190.594 117.276 193.722 120.372 197.581 120.372H204.911C208.769 120.372 211.897 117.276 211.897 113.458V94.963H228.027V115.707C228.027 127.164 218.643 136.451 207.068 136.451H195.424C183.849 136.451 174.466 127.164 174.466 115.707V21.205C174.466 9.74857 183.849 0.460938 195.424 0.460938H207.068C218.643 0.460938 228.027 9.74857 228.027 21.205V41.9491H211.897Z" fill="url(#paint12_linear)"/>
<path fill-rule="evenodd" clip-rule="evenodd" d="M125.561 136.451H113.918C102.342 136.451 92.9582 127.164 92.9582 115.707V21.205C92.9582 9.74857 102.342 0.460938 113.918 0.460938H125.561C137.137 0.460938 146.52 9.74857 146.52 21.205V115.707C146.52 127.164 137.137 136.451 125.561 136.451ZM130.391 23.4546C130.391 19.6361 127.263 16.5399 123.405 16.5399H116.074C112.216 16.5399 109.088 19.6361 109.088 23.4546V113.458C109.088 117.276 112.216 120.372 116.074 120.372H123.405C127.263 120.372 130.391 117.276 130.391 113.458V23.4546Z" fill="url(#paint13_linear)"/>
<path fill-rule="evenodd" clip-rule="evenodd" d="M39.0795 16.6242L18.3397 134.782H0L25.5016 0.553226L65.0043 0.534591V134.782H48.8595V16.4778L39.0795 16.6242Z" fill="url(#paint14_linear)"/>
<path fill-rule="evenodd" clip-rule="evenodd" d="M62.4901 120.512H2.87696L0.185405 136.273H62.5879L62.4901 120.512Z" fill="url(#paint15_linear)"/>
<defs>
<linearGradient id="paint0_linear" x1="457.5" y1="0.460937" x2="457.5" y2="136.461" gradientUnits="userSpaceOnUse">
<stop stop-color="#272727"/>
<stop offset="1" stop-color="#141414" stop-opacity="0.56"/>
</linearGradient>
<linearGradient id="paint1_linear" x1="457.5" y1="0.460937" x2="457.5" y2="136.461" gradientUnits="userSpaceOnUse">
<stop stop-color="#272727"/>
<stop offset="1" stop-color="#141414" stop-opacity="0.56"/>
</linearGradient>
<linearGradient id="paint2_linear" x1="457.5" y1="0.460937" x2="457.5" y2="136.461" gradientUnits="userSpaceOnUse">
<stop stop-color="#272727"/>
<stop offset="1" stop-color="#141414" stop-opacity="0.56"/>
</linearGradient>
<linearGradient id="paint3_linear" x1="457.5" y1="0.460937" x2="457.5" y2="136.461" gradientUnits="userSpaceOnUse">
<stop stop-color="#272727"/>
<stop offset="1" stop-color="#141414" stop-opacity="0.56"/>
</linearGradient>
<linearGradient id="paint4_linear" x1="457.5" y1="0.460937" x2="457.5" y2="136.461" gradientUnits="userSpaceOnUse">
<stop stop-color="#272727"/>
<stop offset="1" stop-color="#141414" stop-opacity="0.56"/>
</linearGradient>
<linearGradient id="paint5_linear" x1="457.5" y1="0.460937" x2="457.5" y2="136.461" gradientUnits="userSpaceOnUse">
<stop stop-color="#272727"/>
<stop offset="1" stop-color="#141414" stop-opacity="0.56"/>
</linearGradient>
<linearGradient id="paint6_linear" x1="457.5" y1="0.460937" x2="457.5" y2="136.461" gradientUnits="userSpaceOnUse">
<stop stop-color="#272727"/>
<stop offset="1" stop-color="#141414" stop-opacity="0.56"/>
</linearGradient>
<linearGradient id="paint7_linear" x1="457.5" y1="0.460937" x2="457.5" y2="136.461" gradientUnits="userSpaceOnUse">
<stop stop-color="#272727"/>
<stop offset="1" stop-color="#141414" stop-opacity="0.56"/>
</linearGradient>
<linearGradient id="paint8_linear" x1="457.5" y1="0.460937" x2="457.5" y2="136.461" gradientUnits="userSpaceOnUse">
<stop stop-color="#272727"/>
<stop offset="1" stop-color="#141414" stop-opacity="0.56"/>
</linearGradient>
<linearGradient id="paint9_linear" x1="457.5" y1="0.460937" x2="457.5" y2="136.461" gradientUnits="userSpaceOnUse">
<stop stop-color="#272727"/>
<stop offset="1" stop-color="#141414" stop-opacity="0.56"/>
</linearGradient>
<linearGradient id="paint10_linear" x1="457.5" y1="0.460937" x2="457.5" y2="136.461" gradientUnits="userSpaceOnUse">
<stop stop-color="#272727"/>
<stop offset="1" stop-color="#141414" stop-opacity="0.56"/>
</linearGradient>
<linearGradient id="paint11_linear" x1="457.5" y1="0.460937" x2="457.5" y2="136.461" gradientUnits="userSpaceOnUse">
<stop stop-color="#272727"/>
<stop offset="1" stop-color="#141414" stop-opacity="0.56"/>
</linearGradient>
<linearGradient id="paint12_linear" x1="457.5" y1="0.460937" x2="457.5" y2="136.461" gradientUnits="userSpaceOnUse">
<stop stop-color="#272727"/>
<stop offset="1" stop-color="#141414" stop-opacity="0.56"/>
</linearGradient>
<linearGradient id="paint13_linear" x1="457.5" y1="0.460937" x2="457.5" y2="136.461" gradientUnits="userSpaceOnUse">
<stop stop-color="#272727"/>
<stop offset="1" stop-color="#141414" stop-opacity="0.56"/>
</linearGradient>
<linearGradient id="paint14_linear" x1="457.5" y1="0.460937" x2="457.5" y2="136.461" gradientUnits="userSpaceOnUse">
<stop stop-color="#272727"/>
<stop offset="1" stop-color="#141414" stop-opacity="0.56"/>
</linearGradient>
<linearGradient id="paint15_linear" x1="457.5" y1="0.460937" x2="457.5" y2="136.461" gradientUnits="userSpaceOnUse">
<stop stop-color="#272727"/>
<stop offset="1" stop-color="#141414" stop-opacity="0.56"/>
</linearGradient>
</defs>
</svg>
