<svg width="1037" height="156" viewBox="0 0 1037 156" fill="none" xmlns="http://www.w3.org/2000/svg">
<path fill-rule="evenodd" clip-rule="evenodd" d="M749.664 155.502L778.554 0.580843L1036.99 0.55957V155.502H749.664ZM815.201 24.1682L815.469 132.022L836.449 132.033L836.594 24.0011L815.201 24.1682ZM857.438 24.1682V45.2303H889.154L889.335 132.022L910.315 132.033L910.46 24.0011C907.19 24.0011 857.438 24.1682 857.438 24.1682ZM931.303 24.1682V45.2303H963.019L963.201 132.022L984.18 132.033L984.325 24.0011L931.303 24.1682Z" fill="black"/>
<path fill-rule="evenodd" clip-rule="evenodd" d="M570.054 0.55957V155.392H551.765V0.695311L570.054 0.55957Z" fill="black"/>
<path fill-rule="evenodd" clip-rule="evenodd" d="M587.651 84.5192H560.922V66.2773H587.628L587.651 84.5192Z" fill="black"/>
<path fill-rule="evenodd" clip-rule="evenodd" d="M615.468 155.395H594.693L580.902 77.5501H580.761L580.831 77.1469L580.761 76.7508H580.899L594.161 0.493164H614.937L600.469 77.1479L615.468 155.395Z" fill="black"/>
<path fill-rule="evenodd" clip-rule="evenodd" d="M480.366 0.562179V155.692H462.077V0.543945L480.366 0.562179Z" fill="black"/>
<path fill-rule="evenodd" clip-rule="evenodd" d="M466.006 66.3196H496.395C500.767 66.3196 504.309 62.7853 504.309 58.4264V26.726C504.309 22.3671 500.767 18.8328 496.395 18.8328H466.006L463.562 0.478516H498.839C511.951 0.478516 522.581 11.0804 522.581 24.1581V60.9933C522.581 74.071 511.951 84.6729 498.839 84.6729H463.562L466.006 66.3196Z" fill="black"/>
<path fill-rule="evenodd" clip-rule="evenodd" d="M466.006 137.357H496.395C500.767 137.357 504.309 133.823 504.309 129.464V92.5024C504.309 88.1425 500.767 84.6092 496.395 84.6092H466.006L463.562 66.2549H498.839C511.951 66.2549 522.581 76.8568 522.581 89.9345V132.032C522.581 145.11 511.951 155.712 498.839 155.712H463.562L466.006 137.357Z" fill="black"/>
<path fill-rule="evenodd" clip-rule="evenodd" d="M399.666 57.7379L382.655 155.392H361.88L390.769 0.581055H408.979L437.867 155.392H417.092L399.666 57.7379Z" fill="black"/>
<path fill-rule="evenodd" clip-rule="evenodd" d="M429.413 137.517H375.688L372.64 155.507H429.523L429.413 137.517Z" fill="black"/>
<path fill-rule="evenodd" clip-rule="evenodd" d="M676.644 57.7379L659.633 155.392H638.857L667.746 0.581055H685.956L714.845 155.392H694.069L676.644 57.7379Z" fill="black"/>
<path fill-rule="evenodd" clip-rule="evenodd" d="M706.39 137.517H652.665L649.617 155.507H706.501L706.39 137.517Z" fill="black"/>
<path fill-rule="evenodd" clip-rule="evenodd" d="M351.082 0.529297L348.856 18.8745L324.73 18.8846V155.725H306.44V18.8927L279.601 18.9302L281.827 0.585011L351.082 0.529297Z" fill="black"/>
<path fill-rule="evenodd" clip-rule="evenodd" d="M240.507 47.8377V26.726C240.507 22.3671 236.963 18.8328 232.593 18.8328H224.29C219.918 18.8328 216.374 22.3671 216.374 26.726V129.465C216.374 133.824 219.918 137.358 224.29 137.358H232.593C236.963 137.358 240.507 133.824 240.507 129.465V108.354H258.779V132.033C258.779 145.111 248.149 155.713 235.036 155.713H221.846C208.734 155.713 198.104 145.111 198.104 132.033V24.1581C198.104 11.0804 208.734 0.478516 221.846 0.478516H235.036C248.149 0.478516 258.779 11.0804 258.779 24.1581V47.8377H240.507Z" fill="black"/>
<path fill-rule="evenodd" clip-rule="evenodd" d="M142.699 155.713H129.51C116.397 155.713 105.767 145.111 105.767 132.033V24.1581C105.767 11.0804 116.397 0.478516 129.51 0.478516H142.699C155.813 0.478516 166.443 11.0804 166.443 24.1581V132.033C166.443 145.111 155.813 155.713 142.699 155.713ZM148.171 26.726C148.171 22.3671 144.627 18.8328 140.257 18.8328H131.953C127.582 18.8328 124.039 22.3671 124.039 26.726V129.465C124.039 133.824 127.582 137.358 131.953 137.358H140.257C144.627 137.358 148.171 133.824 148.171 129.465V26.726Z" fill="black"/>
<path fill-rule="evenodd" clip-rule="evenodd" d="M44.73 18.926L21.2355 153.804H0.459961L29.3487 0.580843L74.0981 0.55957V153.804H55.8089V18.7589L44.73 18.926Z" fill="black"/>
<path fill-rule="evenodd" clip-rule="evenodd" d="M71.2577 137.517H3.72678L0.677734 155.507H71.3684L71.2577 137.517Z" fill="black"/>
</svg>
