<svg width="70" height="70" viewBox="0 0 70 70" fill="none" xmlns="http://www.w3.org/2000/svg">
<path d="M27 12.7219C32.2007 11.0401 37.7993 11.0401 43 12.7219V24C43 27.866 39.866 31 36 31H34C30.134 31 27 27.866 27 24V12.7219Z" stroke="white" stroke-width="2"/>
<path d="M23 16V12.4706C23 6.13556 28.3726 1 35 1C41.6274 1 47 6.13556 47 12.4706V16" stroke="white" stroke-width="2"/>
<path d="M30 30V34M30 34L35 39M30 34L24.1687 36.0581M35 39L40 34M35 39L32.5 41L31.25 42M35 39L37.5 41L38.75 42M40 30V34M40 34L45.8313 36.0581M45.8313 36.0581L51.6626 38.1162C54.8611 39.2451 57 42.2683 57 45.6601V66C57 67.1046 56.1046 68 55 68H15C13.8954 68 13 67.1046 13 66V45.6601C13 42.2683 15.1389 39.2451 18.3374 38.1162L24.1687 36.0581M45.8313 36.0581L40 43L38.75 42M24.1687 36.0581L30 43L31.25 42M31.25 42L31.8765 42.5012C33.7026 43.9621 36.2974 43.9621 38.1235 42.5012L38.75 42" stroke="white" stroke-width="2"/>
<path d="M26 23C25.4747 23 24.9546 22.8965 24.4693 22.6955C23.984 22.4945 23.543 22.1999 23.1716 21.8284C22.8001 21.457 22.5055 21.016 22.3045 20.5307C22.1035 20.0454 22 19.5253 22 19C22 18.4747 22.1035 17.9546 22.3045 17.4693C22.5055 16.984 22.8001 16.543 23.1716 16.1716C23.543 15.8001 23.984 15.5055 24.4693 15.3045C24.9546 15.1035 25.4747 15 26 15" stroke="white" stroke-width="2"/>
<path d="M44 23C44.5253 23 45.0454 22.8965 45.5307 22.6955C46.016 22.4945 46.457 22.1999 46.8284 21.8284C47.1999 21.457 47.4945 21.016 47.6955 20.5307C47.8965 20.0454 48 19.5253 48 19C48 18.4747 47.8965 17.9546 47.6955 17.4693C47.4945 16.984 47.1999 16.543 46.8284 16.1716C46.457 15.8001 46.016 15.5055 45.5307 15.3045C45.0454 15.1035 44.5253 15 44 15" stroke="white" stroke-width="2"/>
<path d="M33 44L31 61L35 64L39 61L37 44" stroke="white" stroke-width="2"/>
</svg>
