<svg width="70" height="70" viewBox="0 0 70 70" fill="none" xmlns="http://www.w3.org/2000/svg">
<g>
<path d="M39.5638 12.0391L52.6819 7.61547C55.3197 6.72597 58.1761 8.1621 59.0354 10.8099L68.2323 39.1483C69.0847 41.7748 67.6465 44.5951 65.0199 45.4475L16.2135 61.2871C13.6021 62.1346 10.7958 60.7179 9.92697 58.1135L3.56378 39.039" stroke="white" stroke-width="2" stroke-linecap="round" stroke-linejoin="round"/>
<rect x="43.8154" y="17.6538" width="11.3783" height="11.3783" rx="2" transform="rotate(-17.1945 43.8154 17.6538)" stroke="white" stroke-width="2"/>
<path d="M37.5645 15.5391C37.5645 17.5936 35.921 19.7074 32.6891 21.367C29.5097 22.9997 25.0477 24.0391 20.0645 24.0391C15.0812 24.0391 10.6192 22.9997 7.43978 21.367C4.20788 19.7074 2.56445 17.5936 2.56445 15.5391C2.56445 13.4845 4.20788 11.3707 7.43978 9.71112C10.6192 8.07844 15.0812 7.03906 20.0645 7.03906C25.0477 7.03906 29.5097 8.07844 32.6891 9.71112C35.921 11.3707 37.5645 13.4845 37.5645 15.5391Z" stroke="white" stroke-width="2"/>
<path d="M38.5645 22.0391C38.5645 27.0096 30.2817 31.0391 20.0645 31.0391C9.84719 31.0391 1.56445 27.0096 1.56445 22.0391" stroke="white" stroke-width="2" stroke-linecap="round"/>
<path d="M38.5645 29.0391C38.5645 34.0096 30.2817 38.0391 20.0645 38.0391C9.84719 38.0391 1.56445 34.0096 1.56445 29.0391" stroke="white" stroke-width="2" stroke-linecap="round"/>
<mask id="path-6-inside-1" fill="white">
<rect x="13.5645" y="49.8223" width="41" height="6" rx="1" transform="rotate(-18.167 13.5645 49.8223)"/>
</mask>
<rect x="13.5645" y="49.8223" width="41" height="6" rx="1" transform="rotate(-18.167 13.5645 49.8223)" stroke="white" stroke-width="4" mask="url(#path-6-inside-1)"/>
</g>
</svg>
