<svg width="23" height="22" viewBox="0 0 23 22" fill="none" xmlns="http://www.w3.org/2000/svg">
<path d="M9.06849 7.29706L8.73449 7.80403L9.03017 8.33426C10.2425 10.5081 11.9416 12.5369 14.6493 13.9194L15.2892 14.2461L15.803 13.7438L16.4447 13.1166C17.0816 12.4941 18.0181 12.4978 18.5428 13.0125C19.3812 13.8349 20.0274 14.6899 20.4923 15.7842C20.6082 16.0571 20.596 16.3373 20.4853 16.555C19.7884 17.925 18.893 18.7834 17.9103 19.2773C16.9209 19.7745 15.7724 19.9374 14.5224 19.7955C11.9957 19.5086 9.17262 17.984 6.87598 15.7811C4.57878 13.5777 2.94833 10.8307 2.63361 8.24715C2.47809 6.97046 2.64323 5.74204 3.19363 4.61452C3.74403 3.48701 4.70886 2.40077 6.24668 1.45537C6.72011 1.16432 7.40113 1.25649 7.87242 1.77757C8.80327 2.80676 9.4355 3.59426 9.97877 4.41505C10.271 4.85657 10.2678 5.47665 9.92078 6.00338L9.06849 7.29706Z" stroke="black" stroke-width="2"/>
</svg>
