<svg width="70" height="70" viewBox="0 0 70 70" fill="none" xmlns="http://www.w3.org/2000/svg">
<g>
<path d="M20.3262 61.0103C20.6614 62.097 21.8341 62.6857 22.9058 62.3056L31.6276 59.2119C32.6818 58.838 33.8445 58.9225 34.8335 59.4451L43.0156 63.7685C44.0211 64.2998 45.2666 63.8869 45.7556 62.8603L49.7352 54.5056C50.2163 53.4957 51.0982 52.7333 52.1671 52.4035L61.0098 49.675C62.0964 49.3397 62.6852 48.167 62.3051 47.0953L59.2114 38.3736C58.8374 37.3193 58.922 36.1567 59.4446 35.1677L63.768 26.9855C64.2993 25.9801 63.8864 24.7346 62.8598 24.2455L54.505 20.2659C53.4951 19.7849 52.7328 18.9029 52.403 17.8341L49.6745 8.99132C49.3392 7.9047 48.1665 7.31592 47.0948 7.69608L38.3731 10.7897C37.3188 11.1637 36.1561 11.0791 35.1671 10.5565L26.985 6.23313C25.9795 5.70187 24.734 6.11473 24.245 7.14138L20.2654 15.4961C19.7843 16.506 18.9024 17.2683 17.8335 17.5981L8.99079 20.3267C7.90416 20.662 7.31539 21.8346 7.69555 22.9064L10.7892 31.6281C11.1632 32.6823 11.0786 33.845 10.556 34.834L6.23261 43.0161C5.70134 44.0216 6.1142 45.2671 7.14085 45.7561L15.4956 49.7358C16.5055 50.2168 17.2678 51.0987 17.5976 52.1676L20.3262 61.0103L19.3706 61.3052L20.3262 61.0103Z" stroke="white" stroke-width="2"/>
<circle cx="25.5" cy="30.502" r="4.5" stroke="white" stroke-width="2"/>
<circle cx="44.5" cy="40.502" r="4.5" stroke="white" stroke-width="2"/>
<path d="M44.5668 21.2295L27.0599 47.5579" stroke="white" stroke-width="2"/>
</g>
</svg>
