<svg width="70" height="70" viewBox="0 0 70 70" fill="none" xmlns="http://www.w3.org/2000/svg">
<path d="M33.4403 1.94305C34.2409 0.945659 35.7591 0.945659 36.5597 1.94305L41.6903 8.33476C42.118 8.86767 42.7883 9.14528 43.4676 9.07094L51.6151 8.1792C52.8865 8.04005 53.9599 9.11355 53.8208 10.3849L52.9291 18.5324C52.8547 19.2117 53.1323 19.882 53.6652 20.3097L60.0569 25.4403C61.0543 26.2409 61.0543 27.7591 60.0569 28.5597L53.6652 33.6903C53.1323 34.118 52.8547 34.7883 52.9291 35.4676L53.8208 43.6151C53.9599 44.8865 52.8865 45.9599 51.6151 45.8208L43.4676 44.9291C42.7883 44.8547 42.118 45.1323 41.6903 45.6652L36.5597 52.0569C35.7591 53.0543 34.2409 53.0543 33.4403 52.0569L28.3097 45.6652C27.882 45.1323 27.2117 44.8547 26.5324 44.9291L18.3849 45.8208C17.1135 45.9599 16.0401 44.8865 16.1792 43.6151L17.0709 35.4676C17.1453 34.7883 16.8677 34.118 16.3348 33.6903L9.94305 28.5597C8.94566 27.7591 8.94566 26.2409 9.94305 25.4403L16.3348 20.3097C16.8677 19.882 17.1453 19.2117 17.0709 18.5324L16.1792 10.3849C16.0401 9.11355 17.1135 8.04005 18.3849 8.1792L26.5324 9.07094C27.2117 9.14528 27.882 8.86766 28.3097 8.33476L33.4403 1.94305Z" stroke="white" stroke-width="2"/>
<circle cx="35" cy="26" r="14" stroke="white" stroke-width="2"/>
<path d="M27.4898 25.7423L32.6531 30.9588L42.0408 21M37.3469 51.4021L43.9184 67L48.6122 57.9897L58 61.3093L50.9592 45.7113M32.6531 51.4021L26.0816 67L21.3878 57.9897L12 61.3093L19.0408 45.7113" stroke="white" stroke-width="2" stroke-linecap="round" stroke-linejoin="round"/>
</svg>
